#!OML:ASF F:\VICON\USERDATA\INSTALL\rory3\rory3.ASF
:FULLY-SPECIFIED
:DEGREES
80
root -0.801064367984805 17.68610839556506 8.169991021676745 4.331298088541136 -4.459760399485095 -2.6436368625962268
lfemur -7.54200480599261 2.337068603744485 -19.670462188598094
ltibia 65.00241969515689
lfoot 14.708689825252948 -14.140955078698497
ltoes -22.542933963813148
rfemur -24.37580209234968 4.898487270291696 30.614510839638697
rtibia 77.97877711683529
rfoot 0.41449213932106455 -7.596586805998616
rtoes -3.7364189424044185
lowerback 14.700777791774774 0.6572404854873513 1.320118225135435
upperback -0.962974003362597 1.2381869957238116 1.978988226411785
thorax -9.46500054812293 0.6407125238389473 0.766408751902109
lowerneck -19.855147599054188 -3.315426448411019 -1.973669953537188
upperneck 13.905470838346446 -4.319631586844308 2.3168603370837797
head 7.95266331483329 -1.9037239404218993 0.5397189526978423
lclavicle 1.124539100313239e-15 -1.4766016290240113e-15
lhumerus -55.28314120800003 -12.750662264208058 98.51673861500512
lradius 106.91868734266349
lwrist 31.120835385638653
lhand -29.003169798477625 -0.34553450155803067
lfingers 7.125019999999998
lthumb -2.2259607707029923 29.889928675695945
rclavicle 1.1245391004060424e-15 -1.4766016289602362e-15
rhumerus -56.984261848335734 9.416712375415003 -100.02560755593832
rradius 120.23971827565133
rwrist -15.356149568347787
rhand -19.22553327296214 41.164635400229415
rfingers 7.125019999999998
rthumb 5.750829705904602 12.596965111467814
81
root -0.7831061570247629 17.715610459437556 8.498557172091395 4.2947193997991295 -4.372805627743121 -2.6263310364824197
lfemur -8.159830877366005 2.227685440055976 -19.59492633980851
ltibia 67.3284611650723
lfoot 14.422682363480885 -14.157375430822421
ltoes -24.388163861448795
rfemur -23.108543675468614 4.773722860931052 30.752857937024302
rtibia 76.13017266102946
rfoot 0.47203107308687553 -7.233780263662693
rtoes -6.466481897225213
lowerback 14.592087937428404 0.6579412035833949 1.4231902748167544
upperback -1.0203012302812615 1.2504252652704224 1.9788514396703427
thorax -9.295286924845076 0.6458208147618825 0.6979614364757876
lowerneck -19.77321302535572 -3.3507559191022596 -1.9547604020554359
upperneck 14.176074569934569 -4.365036853680633 2.2253434061297894
head 8.029153792019716 -1.9327991724147542 0.5173809097587028
lclavicle 1.124539100312919e-15 -1.4766016290242361e-15
lhumerus -55.24330630283819 -12.69247503195199 98.43564361177876
lradius 106.59915843935414
lwrist 30.681606969236434
lhand -29.014689608605714 -0.39088960839305475
lfingers 7.125019999999998
lthumb -2.2839380440981 29.582731794344976
rclavicle 1.124539100407872e-15 -1.4766016289588826e-15
rhumerus -57.319374631000656 9.225463285430619 -99.7884890392206
rradius 120.55362601916373
rwrist -15.45717981888568
rhand -19.294725567193225 41.24020252696912
rfingers 7.125019999999998
rthumb 5.701744034660098 12.566700620882813
82
root -0.7759013915678064 17.73815981088315 8.663171205194223 4.2683945542606345 -4.327449751976357 -2.64269400913921
lfemur -8.8687537889115 2.1586313237739407 -19.464968276604342
ltibia 69.70773697448354
lfoot 14.719569235918978 -13.826979381037955
ltoes -24.35521128538729
rfemur -21.874244524392275 4.747193661434315 30.89250022449921
rtibia 74.44043492371925
rfoot 0.5233422787488782 -7.132047273154407
rtoes -8.280288343103596
lowerback 14.53844559754947 0.6756047220920381 1.5221324937312737
upperback -1.0721599523070826 1.2851250065503863 1.9969428463997614
thorax -9.205707887847637 0.6613551720861635 0.6575270462694247
lowerneck -19.697942817165043 -3.3988273981310284 -1.9369190850269382
upperneck 14.323124165040873 -4.431836864623918 2.149875653930075
head 8.091541738472884 -1.9681183025683078 0.4893915106009161
lclavicle 1.1245391003132142e-15 -1.4766016290239076e-15
lhumerus -55.29619173804629 -12.715313028665959 98.35013939036469
lradius 106.30381829046195
lwrist 30.500484500798837
lhand -28.898370577130486 -0.3252265033016588
lfingers 7.125019999999998
lthumb -2.449788378061257 29.420054698617452
rclavicle 1.1245391004082705e-15 -1.4766016289584777e-15
rhumerus -57.6091987839218 9.04550395085218 -99.54293926300693
rradius 120.80966295241979
rwrist -15.46251856737214
rhand -19.36147121450141 41.24635469238234
rfingers 7.125019999999998
rthumb 5.666320136420302 12.534962712436165
83
root -0.7694350649627318 17.751008791046246 8.857243677431969 4.193661608111268 -4.3173448065451145 -2.647750548508604
lfemur -9.62005852470156 2.139314615254971 -19.33826134416937
ltibia 72.12338155545659
lfoot 14.55733962120214 -13.612933821288843
ltoes -24.348299550190397
rfemur -20.608618023168912 4.720295781701136 31.015451798965266
rtibia 72.9555295844743
rfoot 0.5899493269708329 -7.047610779055603
rtoes -9.097866275885368
lowerback 14.499955861003494 0.7039171823266674 1.6127039907716814
upperback -1.0742071775913398 1.333304268204734 1.9835958414198425
thorax -9.08947452634761 0.6781734617925581 0.5959002776085859
lowerneck -19.6343524491802 -3.467596292407697 -1.923454160180194
upperneck 14.353977581072954 -4.524029766147912 2.094279064249573
head 8.113295559866888 -2.0167285709540046 0.46417917866853897
lclavicle 1.1245391003114475e-15 -1.4766016290249765e-15
lhumerus -55.092650620926285 -12.799653785083985 98.26993821334312
lradius 105.96108821761293
lwrist 30.259474863960953
lhand -28.935882508350005 -0.43726589502896507
lfingers 7.125019999999998
lthumb -2.4571917121527647 29.3570498135178
rclavicle 1.1245391004044021e-15 -1.4766016289610653e-15
rhumerus -57.80540580035524 8.89377678205631 -99.25913510652775
rradius 121.00600329658477
rwrist -15.398453459164866
rhand -19.424320928663988 41.267390233962175
rfingers 7.125019999999998
rthumb 5.597157303544604 12.463229530773159
